<svg xmlns="http://www.w3.org/2000/svg" width="64" height="98" fill="none" viewBox="0 0 64 98"><mask id="mask0_3736_373" width="64" height="98" x="0" y="0" maskUnits="userSpaceOnUse" style="mask-type:luminance"><path fill="#fff" d="M64 0H0V98H64V0Z"/></mask><g mask="url(#mask0_3736_373)"><path fill="#22110c" fill-rule="evenodd" d="M30.6472 0.0688267C17.6823 1.34602 17.2257 20.5388 30.1092 22.6866C30.6929 22.7839 30.8779 22.835 30.8913 22.9027C30.901 22.9515 30.854 23.9193 30.7871 25.0534C30.7201 26.1875 30.6357 28.4175 30.5996 30.0088C30.5635 31.6002 30.5212 32.9115 30.5056 32.9229C30.4901 32.9342 30.2795 33.0406 30.0377 33.1594C29.5848 33.382 28.9891 33.8707 28.7496 34.2163C28.6153 34.4102 28.6153 34.4102 27.7906 34.4371C26.4884 34.4797 25.6947 34.798 24.974 35.5665C24.7742 35.7796 24.5913 35.9307 24.567 35.9025C24.5427 35.8744 23.7913 34.7678 22.8971 33.4434C22.003 32.119 20.9877 30.6276 20.641 30.1293L20.0106 29.2231L20.3805 28.8133C27.2791 21.1701 17.6328 9.65849 9.43015 15.7454C1.26539 21.8042 8.58319 34.5133 17.9709 30.5784C18.0095 30.5622 18.7069 31.4342 19.6204 32.6409C20.4908 33.7907 21.578 35.2083 22.0364 35.7911C22.4948 36.374 22.9085 36.9092 22.9558 36.9806C23.053 37.1271 23.0843 37.1058 22.5592 37.25C21.1032 37.6499 19.7305 38.8583 19.4584 39.9797C19.4227 40.127 19.3641 40.2482 19.3283 40.2492C16.8679 40.3145 14.985 42.1418 14.9584 44.4902C14.9494 45.289 14.9494 45.289 14.6143 45.4879C11.5647 47.2978 7.42734 53.3695 7.13192 56.4687C7.08826 56.9268 7.10547 56.9117 6.502 57.0147C5.14028 57.2471 4.34481 57.7388 3.50602 58.8661C2.44379 60.2941 2.3458 61.5216 3.15577 63.2548C3.43012 63.8422 3.44519 63.7381 2.99294 64.3754C-1.78934 71.1116 -0.793089 79.0166 5.6409 85.3854C9.84892 89.5507 15.7558 92.0903 22.3782 92.5803C24.9068 92.7674 25.1963 92.8626 25.8476 93.7205C30.13 99.3597 33.8264 99.3597 38.1088 93.7205C38.7601 92.8626 39.0496 92.7674 41.5782 92.5803C51.4767 91.8478 59.7584 86.422 62.8627 78.6352C64.8416 73.6719 64.2135 68.9595 60.962 64.3709C60.5111 63.7342 60.5264 63.8411 60.8006 63.2548C61.6105 61.5216 61.5125 60.2941 60.4505 58.8661C59.6117 57.7388 58.816 57.2471 57.4544 57.0147C56.8507 56.9117 56.8682 56.9268 56.8246 56.4687C56.7278 55.4525 55.6398 52.8445 54.6019 51.1397C53.3263 49.0446 50.8481 46.3817 49.3421 45.4879C49.007 45.289 49.007 45.289 48.9979 44.4902C48.9714 42.1418 47.0885 40.3145 44.6281 40.2492C44.5923 40.2482 44.5337 40.127 44.498 39.9797C44.2259 38.8583 42.8532 37.6499 41.3972 37.25C40.8721 37.1058 40.9034 37.1271 41.0006 36.9806C41.0478 36.9092 41.4616 36.374 41.92 35.7911C42.3784 35.2083 43.4656 33.7907 44.336 32.6409C45.2495 31.4342 45.9469 30.5622 45.9855 30.5784C55.3732 34.5133 62.6911 21.8042 54.5262 15.7454C46.3235 9.65849 36.6773 21.1701 43.5758 28.8133L43.9458 29.2231L43.3154 30.1293C42.9687 30.6276 41.9534 32.119 41.0593 33.4434C40.1651 34.7678 39.4137 35.8744 39.3894 35.9025C39.3651 35.9307 39.1822 35.7796 38.9823 35.5665C38.2617 34.798 37.468 34.4797 36.1658 34.4371C35.3411 34.4102 35.3411 34.4102 35.2087 34.219C34.8617 33.7184 34.0622 33.1498 33.4155 32.9436C33.1253 32.8511 33.1253 32.8511 33.1323 29.4513C33.1361 27.5813 33.1265 25.3231 33.1109 24.433L33.0826 22.8145L33.8472 22.6868C48.3373 20.2667 45.2758 -1.37222 30.6472 0.0688267ZM30.291 2.87012C25.3199 3.7681 22.0529 8.36444 22.9446 12.8628C23.0089 13.1872 23.0948 13.5111 23.2033 13.8331C25.8009 21.5419 38.1555 21.5419 40.753 13.8331C40.8628 13.5076 40.9495 13.1818 41.0144 12.8569C42.1526 7.15949 36.5778 1.73452 30.291 2.87012ZM13.5994 16.9817C9.92816 17.6605 7.75544 21.3854 8.66073 24.544C8.83478 25.1512 9.12261 25.7375 9.53543 26.2772C12.4561 30.0955 17.7152 29.7103 19.882 25.5194C20.0717 25.1526 20.2166 24.7789 20.3202 24.403C21.415 20.427 17.8778 16.1907 13.5994 16.9817ZM48.3834 16.9849C44.7211 17.6391 42.8231 21.2129 43.6409 24.3975C43.9142 25.4617 44.4909 26.4826 45.4063 27.3364C48.0396 29.7926 52.0966 29.3159 54.421 26.2772C54.8342 25.7369 55.1207 25.1588 55.2948 24.5648C56.4238 20.7128 52.8241 16.1916 48.3834 16.9849ZM31.362 34.7628C29.5698 35.079 28.991 36.7375 29.9445 38.8251C30.2284 39.4467 30.2284 39.4467 30.6642 39.4512C31.0555 39.4553 31.1446 39.4783 31.539 39.6775C31.9782 39.8994 31.9782 39.8994 32.4174 39.6775C32.8118 39.4783 32.9009 39.4553 33.2922 39.4512C33.7279 39.4467 33.7279 39.4467 34.0116 38.8251C35.1813 36.2617 33.9104 34.3133 31.362 34.7628ZM26.7648 36.4037C25.2964 36.7952 24.8728 38.5768 25.8042 40.4434C26.1898 41.2162 26.1134 41.1555 26.5802 41.0593C26.8826 40.9969 27.0496 40.9903 27.2569 41.0326C27.9375 41.1712 27.8541 41.1937 28.1426 40.7939C28.286 40.5952 28.5245 40.3316 28.6726 40.208C28.9419 39.9832 28.9419 39.9832 28.7642 39.7093C28.2795 38.9621 28.0755 38.2445 28.0296 37.1254C27.9951 36.2828 27.7476 36.1416 26.7648 36.4037ZM35.927 37.1186C35.8809 38.245 35.678 38.9605 35.1922 39.7093C35.0145 39.9832 35.0145 39.9832 35.2838 40.208C35.4319 40.3316 35.6704 40.5952 35.8138 40.7939C36.1023 41.1937 36.0189 41.1712 36.6995 41.0326C36.9068 40.9903 37.0738 40.9969 37.3762 41.0593C37.843 41.1555 37.7666 41.2162 38.1522 40.4434C39.2408 38.2617 38.529 36.4184 36.5671 36.3385L35.96 36.3138L35.927 37.1186ZM22.7463 38.5994C20.5518 39.1672 19.7719 41.7939 21.2551 43.6214C21.6086 44.057 21.5848 44.0495 21.9384 43.8382C22.4878 43.51 23.1071 43.4044 23.8293 43.5158C24.091 43.5561 24.091 43.5561 24.1573 43.2958C24.2687 42.8583 24.5964 42.2875 24.9521 41.9116C25.2903 41.5542 25.2903 41.5542 25.0599 41.2509C24.5571 40.5895 24.11 39.3252 24.1059 38.5534C24.1055 38.4803 23.0712 38.5153 22.7463 38.5994ZM39.8505 38.5534C39.8463 39.3252 39.3993 40.5895 38.8965 41.2509C38.6661 41.5542 38.6661 41.5542 39.0043 41.9116C39.3599 42.2875 39.6877 42.8583 39.7991 43.2958C39.8654 43.5561 39.8654 43.5561 40.1271 43.5158C40.8493 43.4044 41.4686 43.51 42.018 43.8382C42.3716 44.0495 42.3478 44.057 42.7013 43.6214C43.9374 42.0984 43.5689 39.6714 41.9853 38.905C41.3053 38.5759 39.8517 38.3365 39.8505 38.5534ZM29.7823 41.226C28.2407 41.9355 28.1008 43.6657 29.425 45.6435C29.8322 46.2516 29.8322 46.2516 29.9909 46.0042C30.8347 44.6887 33.1217 44.6887 33.9655 46.0042C34.195 46.362 35.119 44.998 35.3537 43.9547C35.7727 42.0926 33.9355 40.1987 32.8969 41.4221C32.676 41.6824 32.4046 42.1603 32.2974 42.4778C32.0898 43.0928 31.8666 43.0928 31.659 42.4778C31.493 41.9861 31.1431 41.4559 30.8236 41.2121C30.5965 41.0388 30.1769 41.0444 29.7823 41.226ZM18.8384 41.6039C16.0378 41.9677 15.5262 45.9479 18.0611 47.65C18.6008 48.0123 20.141 48.6513 20.141 48.5128C20.141 48.5043 20.0901 48.3003 20.0278 48.0594C19.7621 47.0324 20.0395 45.7398 20.6993 44.9304C20.8762 44.7134 20.8762 44.7134 20.432 44.2494C19.7738 43.5619 19.4175 42.8228 19.3193 41.9413C19.273 41.5255 19.2993 41.5439 18.8384 41.6039ZM44.6912 41.6143C44.6802 41.6479 44.6441 41.8579 44.611 42.081C44.4797 42.9651 44.1639 43.5892 43.5006 44.2757C43.079 44.7119 43.079 44.7119 43.2565 44.9297C43.9169 45.7398 44.1944 47.032 43.9286 48.0594C43.8663 48.3003 43.8154 48.5043 43.8154 48.5128C43.8154 48.6513 45.3556 48.0123 45.8953 47.65C48.1411 46.142 48.1021 42.8592 45.826 41.8098C45.4506 41.6368 44.7246 41.5117 44.6912 41.6143ZM26.5751 42.3259C24.7937 42.5794 24.4305 45.4707 25.9361 47.4129C26.0663 47.5809 26.1901 47.7431 26.2111 47.7734C26.2338 47.806 26.3376 47.7683 26.466 47.6807C27.1916 47.1858 28.0696 47.0783 29.3958 47.322C29.4398 47.3301 29.6801 46.7384 29.6417 46.7164C28.1995 45.8924 27.3765 44.4298 27.4595 42.8381C27.4835 42.3767 27.4835 42.3767 27.2813 42.3432C27.1701 42.3247 27.0408 42.3026 26.9941 42.294C26.9474 42.2854 26.7589 42.2998 26.5751 42.3259ZM36.9339 42.2951C36.9028 42.3034 36.7863 42.3252 36.6751 42.3435C36.4729 42.3767 36.4729 42.3767 36.4969 42.8381C36.5799 44.4298 35.7569 45.8924 34.3146 46.7164C34.2762 46.7384 34.5166 47.3301 34.5606 47.322C35.8868 47.0783 36.7648 47.1858 37.4904 47.6807C37.6188 47.7683 37.7226 47.806 37.7453 47.7734C37.7663 47.7431 37.89 47.5809 38.0203 47.4129C39.1269 45.9854 39.2616 43.5659 38.2819 42.7133C37.9788 42.4495 37.2274 42.2164 36.9339 42.2951ZM22.9617 44.6378C20.7785 45.2189 20.6256 48.202 22.6811 50.1117C24.1667 51.492 22.7158 51.1684 21.0976 49.7586C20.6589 49.3763 20.6589 49.3763 20.3245 49.4109C18.9589 49.552 16.8553 48.358 15.7336 46.8051C15.4748 46.4467 15.4748 46.4467 15.3102 46.6371C12.9781 49.3326 11.6508 51.7462 10.1393 56.0392C9.76521 57.1021 9.76147 57.0192 10.187 57.0993C17.4495 58.4623 22.2416 66.113 22.3909 76.5834C22.4234 78.8698 22.3657 78.7326 23.1701 78.4353C23.6613 78.2533 23.7608 78.115 24.1621 77.0582C25.9984 72.221 27.5444 70.303 30.1344 69.6483C30.6704 69.5128 30.6547 69.5229 30.7005 69.2815C30.804 68.7361 31.3863 67.3081 31.5961 67.0852C32.1021 66.5482 32.9502 67.6704 33.2559 69.2815C33.3017 69.5229 33.286 69.5128 33.822 69.6483C36.412 70.303 37.9579 72.221 39.7943 77.0582C40.1956 78.115 40.2951 78.2533 40.7863 78.4353C41.5907 78.7326 41.5329 78.8698 41.5655 76.5834C41.7148 66.1125 46.5064 58.4623 53.7693 57.0993C54.1949 57.0192 54.1912 57.1021 53.8171 56.0392C52.3056 51.7462 50.9783 49.3326 48.6462 46.6371C48.4816 46.4467 48.4816 46.4467 48.2228 46.8051C47.1011 48.358 44.9975 49.552 43.6319 49.4109C43.2975 49.3763 43.2975 49.3763 42.8588 49.7586C41.2406 51.1684 39.7897 51.492 41.2753 50.1117C42.7584 48.7338 43.1328 47.311 42.3929 45.8642C41.8067 44.7177 39.9983 44.0306 39.8834 44.9107C39.6997 46.3185 39.1368 47.4015 38.289 47.9783C38.0421 48.1463 38.0421 48.1463 38.2526 48.5228C38.7369 49.3892 38.4976 50.5152 37.6489 51.3635C36.9308 52.0812 36.3539 52.1282 37.0128 51.4153C37.8772 50.4802 37.8171 49.3403 36.889 49.0678C36.3338 48.9047 34.5835 48.9739 34.5835 49.1589C34.5835 49.5796 34.0209 50.873 33.6869 51.2202C33.2726 51.6508 33.1858 51.4641 33.4711 50.756C34.3452 48.587 33.6167 46.5195 31.9782 46.5195C30.3397 46.5195 29.6112 48.587 30.4852 50.756C30.7706 51.4641 30.6838 51.6508 30.2695 51.2202C29.9355 50.873 29.3729 49.5796 29.3729 49.1589C29.3729 48.9739 27.6226 48.9047 27.0674 49.0678C26.1392 49.3403 26.0791 50.4802 26.9435 51.4153C27.6025 52.1282 27.0256 52.0812 26.3075 51.3635C25.4587 50.5152 25.2195 49.3892 25.7038 48.5228C25.9143 48.1463 25.9143 48.1463 25.6673 47.9783C24.8204 47.4022 24.2566 46.3182 24.0734 44.9142C24.0433 44.6834 24.0113 44.6186 23.9149 44.593C23.7159 44.5402 23.2453 44.5623 22.9617 44.6378ZM7.34941 58.501C4.00737 59.0257 4.51002 62.6657 8.34571 65.7154C9.5633 66.6837 9.58539 66.6971 11.5322 67.6889C18.7089 71.3451 20.5941 73.5918 20.5941 78.4902C20.5941 78.8267 20.8359 78.9298 21.1747 78.7371C21.2357 78.7024 21.226 76.3594 21.1597 75.1072C20.8481 69.2272 18.4656 63.7308 15.0503 61.0137C12.7912 59.2161 9.54376 58.1566 7.34941 58.501ZM54.8879 58.4825C48.6903 59.1349 43.9779 64.9986 42.9392 73.3499C42.774 74.6794 42.6574 78.666 42.7817 78.7371C43.1205 78.9298 43.3623 78.8267 43.3623 78.4902C43.3623 73.5913 45.2462 71.3457 52.4242 67.6889C54.371 66.6971 54.3931 66.6837 55.6107 65.7154C60.2076 62.0609 59.7981 57.9656 54.8879 58.4825ZM4.92171 65.9652C2.31471 68.7753 1.54643 74.5791 3.23348 78.7192C5.60142 84.5309 13.3492 89.9338 20.1693 90.5302C23.26 90.8001 23.9616 90.7542 23.666 90.2989C23.1812 89.5535 21.5195 86.5301 20.5486 84.6272C20.2971 84.1344 19.9069 83.4417 19.6814 83.0872C18.6685 81.4962 18.5942 80.3398 19.4468 79.4388C19.9516 78.9051 19.6345 76.3812 18.8711 74.8546C18.4936 74.0998 18.5196 74.1076 18.1604 74.6452C14.0283 80.8293 5.59802 76.0967 5.76889 67.6894C5.795 66.4065 5.795 66.4065 5.43734 66.1226C5.01987 65.7922 5.06874 65.8067 4.92171 65.9652ZM58.5068 66.1265C58.1613 66.4065 58.1613 66.4065 58.1873 67.6894C58.3584 76.0967 49.928 80.8287 45.796 74.6452C45.4368 74.1076 45.4628 74.0998 45.0853 74.8546C44.3219 76.3812 44.0048 78.9051 44.5096 79.4388C45.3622 80.3398 45.2879 81.4962 44.275 83.0872C44.0495 83.4417 43.6593 84.1344 43.4078 84.6272C42.4369 86.5301 40.7752 89.5535 40.2904 90.2989C39.9929 90.757 39.9097 90.7351 41.6502 90.6545C45.2799 90.487 46.7898 90.1555 49.7339 88.8798C60.3792 84.2688 64.708 74.4727 59.5432 66.682C58.9049 65.7188 58.9678 65.753 58.5068 66.1265ZM7.20255 67.4772C6.65362 69.2787 7.74026 72.674 9.42301 74.4156C9.94549 74.956 9.97686 74.9594 9.7681 74.4526C8.92913 72.4142 9.23673 69.8863 10.4215 69.0838C10.6406 68.9354 10.2405 68.6862 8.70032 68.0131C8.34209 67.8563 7.87761 67.6435 7.66811 67.5399C7.21591 67.3159 7.25029 67.321 7.20255 67.4772ZM56.3605 67.503C56.2047 67.583 55.7205 67.8076 55.2844 68.0019C53.6014 68.7501 53.3089 68.931 53.534 69.0833C54.7197 69.8863 55.0276 72.413 54.1883 74.4526C53.9795 74.9594 54.0109 74.956 54.5334 74.4156C56.2161 72.674 57.3027 69.2787 56.7538 67.4772C56.7068 67.3232 56.7091 67.3232 56.3605 67.503ZM31.3078 70.9386C29.1406 71.3222 27.1122 73.6445 25.5392 77.5432C24.7506 79.4982 24.3404 79.781 21.7269 80.1741C20.007 80.4328 19.8936 80.8472 21.0756 82.5524C21.9302 83.7855 22.974 85.489 24.0765 87.449C26.0468 90.953 26.7738 92.115 27.7758 93.3632C31.2315 97.669 34.1851 96.9629 37.8492 90.9552C38.5707 89.7725 38.6608 89.6168 39.8799 87.449C40.9824 85.489 42.0262 83.7855 42.8808 82.5524C44.0628 80.8472 43.9494 80.4328 42.2295 80.1741C39.6159 79.781 39.2058 79.4982 38.4172 77.5432C36.5208 72.8431 33.9644 70.4682 31.3078 70.9386ZM25.55 80.2077C25.0207 80.4804 24.8298 81.004 25.0762 81.5074C25.2716 81.9062 25.8097 82.105 26.1408 81.9006C26.2319 81.8446 26.3007 81.8653 26.579 82.0338C27.574 82.6353 27.9533 82.5188 27.644 81.7062C27.172 80.4664 26.2826 79.8302 25.55 80.2077ZM37.4328 80.2329C36.8255 80.5381 36.0489 81.8423 36.2395 82.2377C36.3773 82.5233 36.6478 82.4751 37.3774 82.0338C37.6557 81.8653 37.7245 81.8446 37.8156 81.9006C38.1467 82.105 38.6848 81.9062 38.8802 81.5074C39.3022 80.6456 38.3245 79.7843 37.4328 80.2329Z" clip-rule="evenodd"/><path fill="#2430f0" d="M36.934 42.295C36.903 42.303 36.786 42.325 36.675 42.344 36.473 42.377 36.473 42.377 36.497 42.838 36.58 44.43 35.757 45.892 34.315 46.716 34.276 46.738 34.517 47.33 34.561 47.322 35.887 47.078 36.765 47.186 37.49 47.681 37.619 47.768 37.723 47.806 37.745 47.773 37.766 47.743 37.89 47.581 38.02 47.413 39.127 45.985 39.262 43.566 38.282 42.713 37.979 42.45 37.227 42.216 36.934 42.295ZM44.691 41.614C44.68 41.648 44.644 41.858 44.611 42.081 44.48 42.965 44.164 43.589 43.501 44.276 43.079 44.712 43.079 44.712 43.257 44.93 43.917 45.74 44.194 47.032 43.929 48.059 43.866 48.3 43.815 48.504 43.815 48.513 43.815 48.651 45.356 48.012 45.895 47.65 48.141 46.142 48.102 42.859 45.826 41.81 45.451 41.637 44.725 41.512 44.691 41.614ZM39.851 38.553C39.846 39.325 39.399 40.59 38.897 41.251 38.666 41.554 38.666 41.554 39.004 41.912 39.36 42.288 39.688 42.858 39.799 43.296 39.865 43.556 39.865 43.556 40.127 43.516 40.849 43.404 41.469 43.51 42.018 43.838 42.372 44.05 42.348 44.057 42.701 43.621 43.937 42.098 43.569 39.671 41.985 38.905 41.305 38.576 39.852 38.337 39.851 38.553ZM35.927 37.119C35.881 38.245 35.678 38.961 35.192 39.709 35.015 39.983 35.015 39.983 35.284 40.208 35.432 40.332 35.67 40.595 35.814 40.794 36.102 41.194 36.019 41.171 36.7 41.033 36.907 40.99 37.074 40.997 37.376 41.059 37.843 41.156 37.767 41.216 38.152 40.443 39.241 38.262 38.529 36.418 36.567 36.338L35.96 36.314 35.927 37.119ZM31.362 34.763C29.57 35.079 28.991 36.738 29.945 38.825 30.228 39.447 30.228 39.447 30.664 39.451 31.056 39.455 31.145 39.478 31.539 39.678 31.978 39.899 31.978 39.899 32.417 39.678 32.812 39.478 32.901 39.455 33.292 39.451 33.728 39.447 33.728 39.447 34.012 38.825 35.181 36.262 33.91 34.313 31.362 34.763ZM29.782 41.226C28.241 41.936 28.101 43.666 29.425 45.644 29.832 46.252 29.832 46.252 29.991 46.004 30.835 44.689 33.122 44.689 33.966 46.004 34.195 46.362 35.119 44.998 35.354 43.955 35.773 42.093 33.936 40.199 32.897 41.422 32.676 41.682 32.405 42.16 32.297 42.478 32.09 43.093 31.867 43.093 31.659 42.478 31.493 41.986 31.143 41.456 30.824 41.212 30.597 41.039 30.177 41.044 29.782 41.226ZM26.575 42.326C24.794 42.579 24.431 45.471 25.936 47.413 26.066 47.581 26.19 47.743 26.211 47.773 26.234 47.806 26.338 47.768 26.466 47.681 27.192 47.186 28.07 47.078 29.396 47.322 29.44 47.33 29.68 46.738 29.642 46.716 28.2 45.892 27.377 44.43 27.459 42.838 27.484 42.377 27.484 42.377 27.281 42.343 27.17 42.325 27.041 42.303 26.994 42.294 26.947 42.285 26.759 42.3 26.575 42.326ZM22.746 38.599C20.552 39.167 19.772 41.794 21.255 43.621 21.609 44.057 21.585 44.05 21.938 43.838 22.488 43.51 23.107 43.404 23.829 43.516 24.091 43.556 24.091 43.556 24.157 43.296 24.269 42.858 24.596 42.288 24.952 41.912 25.29 41.554 25.29 41.554 25.06 41.251 24.557 40.59 24.11 39.325 24.106 38.553 24.106 38.48 23.071 38.515 22.746 38.599ZM26.765 36.404C25.296 36.795 24.873 38.577 25.804 40.443 26.19 41.216 26.113 41.156 26.58 41.059 26.883 40.997 27.05 40.99 27.257 41.033 27.938 41.171 27.854 41.194 28.143 40.794 28.286 40.595 28.525 40.332 28.673 40.208 28.942 39.983 28.942 39.983 28.764 39.709 28.28 38.962 28.076 38.245 28.03 37.125 27.995 36.283 27.748 36.142 26.765 36.404ZM18.838 41.604C16.038 41.968 15.526 45.948 18.061 47.65 18.601 48.012 20.141 48.651 20.141 48.513 20.141 48.504 20.09 48.3 20.028 48.059 19.762 47.032 20.04 45.74 20.699 44.93 20.876 44.713 20.876 44.713 20.432 44.249 19.774 43.562 19.418 42.823 19.319 41.941 19.273 41.526 19.299 41.544 18.838 41.604Z"/><path fill="#2be1b7" d="M54.8879 58.4825C48.6904 59.1349 43.9779 64.9986 42.9393 73.3499C42.774 74.6794 42.6574 78.666 42.7817 78.7371C43.1205 78.9298 43.3623 78.8267 43.3623 78.4902C43.3623 73.5913 45.2463 71.3457 52.4242 67.6889C54.371 66.6971 54.3931 66.6837 55.6107 65.7154C60.2076 62.0609 59.7981 57.9656 54.8879 58.4825Z"/><path fill="#2be1b7" d="M58.507 66.127C58.161 66.407 58.161 66.407 58.187 67.689 58.358 76.097 49.928 80.829 45.796 74.645 45.437 74.108 45.463 74.1 45.085 74.855 44.322 76.381 44.005 78.905 44.51 79.439 45.362 80.34 45.288 81.496 44.275 83.087 44.05 83.442 43.659 84.134 43.408 84.627 42.437 86.53 40.775 89.554 40.29 90.299 39.993 90.757 39.91 90.735 41.65 90.655 45.28 90.487 46.79 90.156 49.734 88.88 60.379 84.269 64.708 74.473 59.543 66.682 58.905 65.719 58.968 65.753 58.507 66.127ZM4.922 65.965C2.315 68.775 1.546 74.579 3.233 78.719 5.601 84.531 13.349 89.934 20.169 90.53 23.26 90.8 23.962 90.754 23.666 90.299 23.181 89.554 21.52 86.53 20.549 84.627 20.297 84.134 19.907 83.442 19.681 83.087 18.669 81.496 18.594 80.34 19.447 79.439 19.952 78.905 19.635 76.381 18.871 74.855 18.494 74.1 18.52 74.108 18.16 74.645 14.028 80.829 5.598 76.097 5.769 67.689 5.795 66.407 5.795 66.407 5.437 66.123 5.02 65.792 5.069 65.807 4.922 65.965Z"/><path fill="#2be1b7" d="M7.34942 58.501C4.00738 59.0257 4.51003 62.6657 8.34572 65.7154C9.56331 66.6837 9.5854 66.6971 11.5322 67.6889C18.7089 71.3451 20.5941 73.5918 20.5941 78.4902C20.5941 78.8267 20.8359 78.9298 21.1747 78.7371C21.2357 78.7024 21.226 76.3594 21.1597 75.1072C20.8482 69.2272 18.4657 63.7308 15.0503 61.0137C12.7912 59.2161 9.54377 58.1566 7.34942 58.501Z"/><path fill="#2430f0" d="M22.9617 44.6378C20.7785 45.2189 20.6256 48.202 22.6811 50.1117C24.1667 51.492 22.7157 51.1684 21.0976 49.7586C20.6589 49.3763 20.6589 49.3763 20.3245 49.4109C18.9589 49.552 16.8553 48.358 15.7336 46.8051C15.4748 46.4467 15.4748 46.4467 15.3102 46.6371C12.9781 49.3326 11.6508 51.7462 10.1393 56.0392C9.76518 57.1021 9.76144 57.0192 10.187 57.0993C17.4495 58.4623 22.2416 66.113 22.3909 76.5834C22.4234 78.8698 22.3657 78.7326 23.1701 78.4353C23.6612 78.2533 23.7608 78.115 24.1621 77.0582C25.9984 72.221 27.5443 70.303 30.1344 69.6483C30.6704 69.5128 30.6547 69.5229 30.7005 69.2815C30.804 68.7361 31.3863 67.3081 31.5961 67.0852C32.1021 66.5482 32.9502 67.6704 33.2559 69.2815C33.3017 69.5229 33.286 69.5128 33.822 69.6483C36.412 70.303 37.9579 72.221 39.7943 77.0582C40.1956 78.115 40.2951 78.2533 40.7863 78.4353C41.5907 78.7326 41.5329 78.8698 41.5655 76.5834C41.7148 66.1125 46.5064 58.4623 53.7693 57.0993C54.1949 57.0192 54.1912 57.1021 53.8171 56.0392C52.3056 51.7462 50.9783 49.3326 48.6462 46.6371C48.4816 46.4467 48.4816 46.4467 48.2227 46.8051C47.1011 48.358 44.9975 49.552 43.6319 49.4109C43.2975 49.3763 43.2975 49.3763 42.8588 49.7586C41.2406 51.1684 39.7896 51.492 41.2753 50.1117C42.7584 48.7338 43.1328 47.311 42.3929 45.8642C41.8067 44.7177 39.9983 44.0306 39.8834 44.9107C39.6997 46.3185 39.1368 47.4015 38.289 47.9783C38.0421 48.1463 38.0421 48.1463 38.2526 48.5228C38.7369 49.3892 38.4976 50.5153 37.6489 51.3635C36.9308 52.0812 36.3539 52.1282 37.0128 51.4153C37.8772 50.4802 37.8171 49.3403 36.889 49.0678C36.3338 48.9048 34.5835 48.9739 34.5835 49.1589C34.5835 49.5796 34.0209 50.873 33.6869 51.2202C33.2726 51.6508 33.1858 51.4641 33.4711 50.7561C34.3452 48.587 33.6166 46.5195 31.9782 46.5195C30.3397 46.5195 29.6112 48.587 30.4852 50.7561C30.7706 51.4641 30.6837 51.6508 30.2695 51.2202C29.9355 50.873 29.3729 49.5796 29.3729 49.1589C29.3729 48.9739 27.6226 48.9048 27.0674 49.0678C26.1392 49.3403 26.0791 50.4802 26.9435 51.4153C27.6025 52.1282 27.0256 52.0812 26.3075 51.3635C25.4587 50.5153 25.2195 49.3892 25.7038 48.5228C25.9143 48.1463 25.9143 48.1463 25.6673 47.9783C24.8204 47.4022 24.2566 46.3182 24.0734 44.9142C24.0433 44.6834 24.0113 44.6186 23.9149 44.593C23.7159 44.5402 23.2453 44.5623 22.9617 44.6378Z"/><path fill="#f2c79c" fill-rule="evenodd" d="M31.3078 70.9386C29.1406 71.3222 27.1122 73.6445 25.5392 77.5432C24.7505 79.4982 24.3404 79.781 21.7269 80.1741C20.007 80.4328 19.8936 80.8472 21.0756 82.5524C21.9302 83.7855 22.974 85.489 24.0765 87.449C26.0467 90.953 26.7738 92.115 27.7758 93.3632C31.2315 97.669 34.1851 96.9629 37.8492 90.9552C38.5707 89.7725 38.6608 89.6168 39.8799 87.449C40.9824 85.489 42.0262 83.7855 42.8808 82.5524C44.0627 80.8472 43.9494 80.4328 42.2295 80.1741C39.6159 79.781 39.2058 79.4982 38.4172 77.5432C36.5208 72.8431 33.9644 70.4682 31.3078 70.9386ZM25.0762 81.5074C24.8298 81.004 25.0207 80.4804 25.55 80.2077C26.2826 79.8302 27.172 80.4664 27.644 81.7062C27.9533 82.5188 27.574 82.6353 26.579 82.0338C26.3007 81.8653 26.2319 81.8446 26.1408 81.9006C25.8097 82.105 25.2716 81.9062 25.0762 81.5074ZM36.2395 82.2377C36.0489 81.8423 36.8255 80.5381 37.4327 80.2329C38.3245 79.7843 39.3022 80.6456 38.8802 81.5074C38.6848 81.9062 38.1467 82.105 37.8156 81.9006C37.7245 81.8446 37.6557 81.8653 37.3773 82.0338C36.6477 82.4751 36.3773 82.5233 36.2395 82.2377Z" clip-rule="evenodd"/><path fill="#2430f0" fill-rule="evenodd" d="M20.32 24.403C19.567 21.595 17.219 19.384 14.03 19.974 11.499 20.442 9.25 22.364 8.661 24.544 8.835 25.151 9.123 25.738 9.535 26.277 12.456 30.096 17.715 29.71 19.882 25.519 20.072 25.153 20.217 24.779 20.32 24.403ZM23.203 13.833C23.095 13.511 23.009 13.187 22.945 12.863 23.604 9.488 26.865 6.559 30.721 5.862 35.882 4.93 40.133 8.426 41.014 12.857 40.95 13.182 40.863 13.508 40.753 13.833 38.156 21.542 25.801 21.542 23.203 13.833Z" clip-rule="evenodd"/><path fill="#2430f0" d="M48.383 16.985C44.721 17.639 42.823 21.213 43.641 24.398 44.182 22.263 46.296 20.427 48.814 19.977 52.114 19.387 54.519 21.74 55.295 24.565 56.424 20.713 52.824 16.192 48.383 16.985ZM22.945 12.863C23.604 9.488 26.865 6.559 30.721 5.862 35.882 4.93 40.133 8.426 41.014 12.857 42.153 7.159 36.578 1.735 30.291 2.87 25.32 3.768 22.053 8.364 22.945 12.863ZM14.03 19.974C17.219 19.384 19.567 21.595 20.32 24.403 21.415 20.427 17.878 16.191 13.599 16.982 9.928 17.661 7.755 21.385 8.661 24.544 9.25 22.364 11.499 20.442 14.03 19.974Z"/><path fill="#2430f0" d="M45.4063 27.3364C48.0396 29.7926 52.0966 29.3159 54.421 26.2772C54.8342 25.7369 55.1207 25.1588 55.2948 24.5649C54.5193 21.74 52.1137 19.3873 48.8135 19.9768C46.2959 20.4266 44.1819 22.2632 43.6409 24.3975C43.9142 25.4617 44.4909 26.4826 45.4063 27.3364Z"/><path fill="#f2c79c" fill-rule="evenodd" d="M24.3135 9.82171C25.7542 7.8434 28.1023 6.33599 30.7261 5.86201C34.6523 5.15281 38.052 7.00659 39.842 9.88538C40.1832 9.54586 40.4952 9.20078 40.753 8.86277C39.4215 4.9206 35.0634 2.00893 30.296 2.8701C27.0022 3.46507 24.4566 5.68359 23.3731 8.42143C23.6075 8.8682 23.9385 9.34756 24.3135 9.82171Z" clip-rule="evenodd"/><path fill="#2be1b7" d="M24.314 9.822C25.593 11.439 27.383 12.996 27.599 12.996 27.762 12.996 28.665 12.129 29.603 11.229 30.616 10.256 31.669 9.244 31.875 9.244 32.073 9.244 32.923 10.182 33.773 11.12 34.622 12.058 35.472 12.996 35.67 12.996 35.923 12.996 38.215 11.504 39.842 9.885 38.052 7.007 34.652 5.153 30.726 5.862 28.102 6.336 25.754 7.843 24.314 9.822ZM8.691 24.386C9.343 22.272 11.544 20.43 14.014 19.974 15.902 19.625 17.496 20.257 18.638 21.414 18.85 20.639 19.003 19.712 18.985 18.935 17.704 17.459 15.738 16.584 13.584 16.982 9.999 17.644 7.843 21.211 8.586 24.319 8.621 24.342 8.655 24.364 8.691 24.386Z"/><path fill="#2be1b7" d="M8.6908 24.386C10.0797 25.2533 11.9731 25.632 12.472 25.3443C12.8582 25.1216 13.037 23.9982 13.079 22.8412C13.111 21.9619 13.1396 21.1747 13.3108 21.0296C13.5 20.8692 14.4177 21.391 15.3902 21.944C16.456 22.5499 17.6599 23.0784 17.9709 22.9027C18.1932 22.7771 18.4122 22.238 18.6375 21.4142C17.4955 20.2572 15.9022 19.6245 14.0138 19.9736C11.5443 20.4302 9.34326 22.272 8.6908 24.386Z"/><path fill="#2be1b7" fill-rule="evenodd" d="M44.0624 20.3883C44.1473 21.0043 45.9314 24.3083 46.4128 24.4203C46.6735 24.481 47.5653 23.8519 48.3823 23.2757C49.0739 22.7878 49.7119 22.3378 49.8677 22.3763C50.0098 22.4114 50.2806 22.8332 50.5972 23.3265C51.038 24.0131 51.5678 24.8382 51.9632 24.9523C52.4755 25.1 54.5157 24.0391 55.5141 23.3276C55.6683 19.8161 52.3697 16.2754 48.3986 16.9849C46.3249 17.3553 44.8169 18.6618 44.0472 20.3036C44.0531 20.3295 44.0581 20.3576 44.0624 20.3883Z" clip-rule="evenodd"/><path fill="#f1f1f1" d="M56.361 67.503C56.205 67.583 55.721 67.808 55.284 68.002 53.601 68.75 53.309 68.931 53.534 69.083 54.72 69.886 55.028 72.413 54.188 74.453 53.98 74.959 54.011 74.956 54.533 74.416 56.216 72.674 57.303 69.279 56.754 67.477 56.707 67.323 56.709 67.323 56.361 67.503ZM7.203 67.477C6.654 69.279 7.74 72.674 9.423 74.416 9.945 74.956 9.977 74.959 9.768 74.453 8.929 72.414 9.237 69.886 10.422 69.084 10.641 68.935 10.241 68.686 8.7 68.013 8.342 67.856 7.878 67.644 7.668 67.54 7.216 67.316 7.25 67.321 7.203 67.477ZM52.673 72.609C52.673 72.423 52.508 72.273 52.304 72.273 52.101 72.273 51.936 72.423 51.936 72.609 51.936 72.794 52.101 72.945 52.304 72.945 52.508 72.945 52.673 72.794 52.673 72.609Z"/><path fill="#22110c" fill-rule="evenodd" d="M40.5098 14.4687C37.3587 17.9388 31.0957 19.8484 23.9393 15.4293C27.478 21.3135 37.6984 20.9933 40.5098 14.4687ZM18.9789 26.8619C15.6621 28.2337 11.1588 26.8293 8.95886 25.3337C9.11337 25.6598 9.30497 25.9757 9.53554 26.2772C12.1061 29.6377 16.488 29.7422 18.9789 26.8619ZM54.9338 25.4684C53.0268 27.2415 49.1655 28.502 44.6555 26.5029C44.8742 26.7942 45.1242 27.0732 45.4064 27.3364C48.0398 29.7926 52.0967 29.3159 54.4211 26.2772C54.6211 26.0156 54.7915 25.7452 54.9338 25.4684Z" clip-rule="evenodd" opacity="0.2"/><path fill="#2430f0" d="M22.9446 12.8628C23.6043 9.48749 26.8651 6.55858 30.7211 5.86205C35.8819 4.92983 40.1328 8.42562 41.0144 12.8569C42.1526 7.15952 36.5778 1.7345 30.291 2.8701C25.3199 3.76808 22.0529 8.36447 22.9446 12.8628Z"/><path fill="#2be1b7" fill-rule="evenodd" d="M24.3135 9.82176C25.7542 7.84345 28.1023 6.33604 30.7261 5.86211C34.6523 5.15288 38.052 7.00664 39.842 9.88543C40.1832 9.5459 40.4952 9.20089 40.753 8.86287C39.4215 4.92066 35.0634 2.009 30.296 2.87016C27.0022 3.46513 24.4566 5.68364 23.3731 8.42148C23.6075 8.86825 23.9385 9.34761 24.3135 9.82176Z" clip-rule="evenodd"/><path fill="#fff" fill-rule="evenodd" d="M34.2491 35.9773C33.835 35.0209 32.8027 34.5087 31.362 34.7628C30.5112 34.913 29.9339 35.3656 29.6641 36.023C30.2318 35.5595 31.2364 35.408 31.9859 35.3923C32.7102 35.4075 33.6727 35.5495 34.2491 35.9773ZM27.9417 36.5826C27.24 36.6891 25.9584 37.0266 25.4015 37.8033C25.5872 37.1094 26.0534 36.5934 26.7648 36.4037C27.4769 36.2138 27.803 36.2356 27.9417 36.5826ZM24.1143 38.7376C24.1091 38.6737 24.1062 38.6121 24.1058 38.5534C24.1054 38.4803 23.0712 38.5154 22.7463 38.5994C21.6342 38.8872 20.8853 39.7038 20.6103 40.6771C21.3541 39.6373 22.739 38.7702 24.1143 38.7376ZM16.4243 44.403C16.753 43.2975 17.9778 42.1443 18.9735 42.1443C19.1143 42.1443 19.237 42.1366 19.3436 42.1229C19.3342 42.0631 19.3262 42.0025 19.3193 41.9413C19.3171 41.9208 19.315 41.9013 19.3129 41.8829C19.2953 41.7196 19.2861 41.6355 19.239 41.5977C19.1888 41.5575 19.0956 41.5699 18.9032 41.5953C18.8827 41.5981 18.8611 41.601 18.8384 41.6039C17.3356 41.7991 16.4918 43.0358 16.4243 44.403ZM31.3569 41.8431C30.7793 41.3996 29.9246 41.2243 28.7245 42.217C28.9271 41.7962 29.2804 41.457 29.7822 41.226C30.1768 41.0444 30.5965 41.0388 30.8236 41.2121C31.0046 41.3502 31.1954 41.5803 31.3569 41.8431ZM35.0713 42.0777C34.5531 41.1328 33.5615 40.6393 32.8969 41.4221C32.8 41.5363 32.6933 41.6925 32.5951 41.8585C33.1446 41.4261 33.9497 41.2322 35.0713 42.0777ZM27.4688 42.6383C27.4775 42.3758 27.4487 42.371 27.2813 42.3432C27.1701 42.3248 27.0408 42.3026 26.9941 42.294C26.9474 42.2854 26.7588 42.2998 26.5751 42.3259C25.7001 42.4505 25.1673 43.2114 25.03 44.1836C25.3764 43.0712 26.6822 42.5518 27.4688 42.6383ZM39.9159 44.7829C40.188 44.1053 41.838 44.779 42.3929 45.8642C42.5472 46.1658 42.653 46.4664 42.7104 46.7657C42.2852 45.584 40.9462 45.0424 39.9159 44.7829ZM34.5821 49.1978C34.583 49.1841 34.5835 49.1711 34.5835 49.1589C34.5835 48.974 36.3338 48.9048 36.889 49.0678C37.1521 49.145 37.3454 49.2919 37.4677 49.4841C36.9365 49.0205 35.7808 49.1066 34.5821 49.1978ZM30.5593 47.2823C30.8813 46.8079 31.3663 46.5195 31.9782 46.5195C32.5785 46.5195 33.0567 46.7971 33.3787 47.2556C32.9777 46.9461 32.4283 46.7872 31.9859 46.7461C31.5309 46.7883 30.9629 46.9552 30.5593 47.2823ZM26.4691 49.5163C26.59 49.3083 26.7898 49.1493 27.0673 49.0678C27.6226 48.9048 29.3729 48.974 29.3729 49.1589C29.3729 49.1708 29.3733 49.1834 29.3742 49.1966C28.1541 49.1038 26.9811 49.0187 26.4691 49.5163ZM24.0524 44.7838C22.9989 45.0496 21.6245 45.6103 21.2335 46.8481C21.2966 45.8035 21.8799 44.9258 22.9617 44.6378C23.2453 44.5623 23.7159 44.5402 23.9149 44.593C23.99 44.6129 24.026 44.6566 24.0524 44.7838ZM38.5698 37.8028C38.3304 36.9463 37.6334 36.3819 36.567 36.3385L35.9599 36.3138L35.9494 36.571C36.6289 36.663 37.9907 36.9957 38.5698 37.8028ZM43.3288 40.6321C43.1312 39.8833 42.6728 39.2377 41.9853 38.905C41.3053 38.5759 39.8517 38.3365 39.8505 38.5534C39.8502 38.6121 39.8474 38.6735 39.8421 38.7373C41.2026 38.7634 42.5748 39.6086 43.3288 40.6321ZM47.5519 44.418C47.2299 43.308 45.9985 42.1443 44.9983 42.1443C44.8472 42.1443 44.717 42.1354 44.6051 42.1198C44.6071 42.107 44.6091 42.094 44.611 42.081C44.6441 41.8579 44.6802 41.6479 44.6912 41.6143C44.7246 41.5117 45.4506 41.6368 45.826 41.8098C46.9174 42.313 47.4944 43.3297 47.5519 44.418ZM38.9088 44.0871C38.8342 43.5092 38.6273 43.0139 38.2819 42.7133C37.9788 42.4495 37.2274 42.2164 36.9339 42.2951C36.9028 42.3034 36.7863 42.3252 36.6751 42.3435C36.5074 42.3711 36.4788 42.3758 36.4876 42.64C37.2496 42.5478 38.5165 43.0342 38.9088 44.0871Z" clip-rule="evenodd" opacity="0.2" style="mix-blend-mode:hard-light"/><path fill="#fff" fill-opacity="0.4" fill-rule="evenodd" d="M57.887 58.983C55.655 58.817 53.052 59.549 51.172 60.709 48.538 62.333 44.489 66.645 43.639 70.817 43.404 71.97 43.228 72.348 43.097 72.265 44.395 64.494 48.963 59.106 54.888 58.483 56.224 58.342 57.227 58.543 57.887 58.983ZM5.954 59.036C8.244 58.786 10.984 59.529 12.942 60.737 15.575 62.361 19.625 66.673 20.474 70.845 20.608 71.499 20.722 71.903 20.82 72.116 19.997 67.417 17.877 63.263 15.05 61.014 12.791 59.216 9.544 58.157 7.349 58.501 6.769 58.592 6.305 58.777 5.954 59.036ZM26.394 75.666C28.246 73.652 30.619 73.309 31.887 73.309 33.204 73.309 35.816 73.729 37.702 75.942 35.902 72.311 33.643 70.525 31.308 70.939 29.515 71.256 27.817 72.9 26.394 75.666Z" clip-rule="evenodd" style="mix-blend-mode:hard-light"/><path fill="#22110c" fill-rule="evenodd" d="M56.898 68.562C56.051 68.923 55.103 69.29 54.078 69.657 53.925 69.42 53.743 69.225 53.534 69.083 53.309 68.931 53.602 68.75 55.285 68.002 55.721 67.808 56.205 67.583 56.361 67.503L56.367 67.5C56.583 67.388 56.662 67.347 56.702 67.371 56.726 67.385 56.736 67.42 56.753 67.475L56.754 67.477C56.851 67.795 56.897 68.163 56.898 68.562ZM7.06 68.47C7.916 68.853 8.87 69.241 9.897 69.629 10.046 69.405 10.221 69.219 10.422 69.084 10.641 68.936 10.241 68.686 8.701 68.013 8.342 67.856 7.878 67.644 7.668 67.54 7.639 67.525 7.612 67.512 7.587 67.5 7.359 67.387 7.283 67.348 7.248 67.372 7.23 67.383 7.223 67.409 7.211 67.449 7.209 67.458 7.206 67.467 7.203 67.477 7.113 67.771 7.067 68.107 7.06 68.47ZM19.307 82.435C19.126 84.357 19.792 86.505 20.1 87.497 20.152 87.666 20.194 87.801 20.22 87.897 20.439 88.71 18.054 89.997 9.306 86.055 12.536 88.486 16.488 90.208 20.169 90.53 23.26 90.8 23.962 90.754 23.666 90.299 23.181 89.554 21.519 86.53 20.549 84.627 20.297 84.134 19.907 83.442 19.681 83.087 19.538 82.862 19.413 82.644 19.307 82.435ZM54.704 86.037C45.925 90 43.533 88.711 43.752 87.897 43.778 87.801 43.82 87.666 43.872 87.497 44.181 86.501 44.852 84.337 44.663 82.41 44.554 82.626 44.425 82.852 44.275 83.087 44.05 83.442 43.659 84.134 43.408 84.627 42.437 86.53 40.775 89.554 40.291 90.299 40.183 90.465 40.103 90.568 40.128 90.628 40.172 90.733 40.541 90.706 41.65 90.655 45.28 90.487 46.79 90.156 49.734 88.88 51.588 88.077 53.25 87.117 54.704 86.037ZM23.581 86.579C25.495 89.639 26.271 90.741 27.317 91.918 31.145 96.228 34.416 95.521 38.475 89.508 39.235 88.383 39.362 88.187 40.535 86.303 40.319 86.673 40.101 87.057 39.88 87.449 38.661 89.617 38.571 89.773 37.849 90.955 34.185 96.963 31.231 97.669 27.776 93.363 26.774 92.115 26.047 90.953 24.076 87.449 23.91 87.153 23.745 86.863 23.581 86.579Z" clip-rule="evenodd" opacity="0.2"/><path fill="#000" fill-opacity="0.2" d="M31.943 65.553C31.235 65.553 30.329 70.537 29.933 70.537L29.112 71.293 31.943 70.537 35.2 71.489C34.851 71.171 34.101 70.537 33.897 70.537 33.643 70.537 32.651 65.553 31.943 65.553ZM27.243 52.168C26.846 52.168 25.515 51.244 25.515 49.872 25.704 49.527 26.081 48.988 26.081 49.592 26.081 50.348 26.931 51.328 27.158 51.552 27.384 51.776 27.639 52.168 27.243 52.168ZM19.653 49.872C18.039 49.872 15.943 47.772 14.867 46.344L15.519 45.784 16.991 47.884 20.333 48.864 20.984 47.8C21.145 48.043 21.522 48.629 21.749 49.032 22.032 49.536 22.768 49.928 23.363 50.768 23.958 51.608 21.692 50.572 21.409 50.432 21.182 50.32 20.691 49.975 20.474 49.816 20.474 49.835 20.31 49.872 19.653 49.872ZM24.722 47.324C24.071 46.512 24.297 45.56 24.184 44.748L26.025 48.052 25.883 48.304 25.879 48.302C25.698 48.208 25.24 47.97 24.722 47.324ZM30.527 51.664C29.933 51.524 29.395 50.152 29.395 49.116L29.961 48.864 30.329 50.32C30.443 50.768 31.122 51.804 30.527 51.664ZM36.673 52.168C37.069 52.168 38.4 51.244 38.4 49.872 38.211 49.527 37.834 48.988 37.834 49.592 37.834 50.348 36.984 51.328 36.758 51.552 36.531 51.776 36.276 52.168 36.673 52.168ZM44.262 49.872C45.876 49.872 47.972 47.772 49.048 46.344L48.397 45.784 46.924 47.884 43.582 48.864 42.931 47.8C42.771 48.043 42.393 48.629 42.166 49.032 41.883 49.536 41.147 49.928 40.552 50.768 39.958 51.608 42.223 50.572 42.506 50.432 42.733 50.32 43.224 49.975 43.441 49.816 43.441 49.835 43.605 49.872 44.262 49.872ZM39.193 47.324C39.844 46.512 39.618 45.56 39.731 44.748L37.89 48.052 38.032 48.304 38.036 48.302C38.218 48.208 38.675 47.97 39.193 47.324ZM33.359 51.692C33.954 51.552 34.52 50.152 34.52 49.116L33.954 48.864 33.586 50.32C33.473 50.768 32.765 51.832 33.359 51.692Z"/><path fill="#22110c" d="M25.243 81.681C25.045 81.681 25.668 81.373 25.47 80.841 25.942 80.645 26.682 80.846 27.225 81.317 27.905 81.905 27.905 83.361 27.877 83.977 27.848 84.593 25.441 81.681 25.243 81.681ZM38.675 81.699C38.873 81.699 38.25 81.391 38.448 80.859 37.976 80.663 37.236 80.865 36.692 81.335 36.013 81.923 36.013 83.379 36.041 83.995 36.069 84.611 38.477 81.699 38.675 81.699Z" opacity="0.2"/><path fill="#22110c" fill-rule="evenodd" d="M12.968 67.471C16.415 69.51 19.766 71.492 19.766 73.953 19.766 74.031 19.765 74.11 19.763 74.187 18.642 71.867 16.212 70.079 11.52 67.689 9.574 66.697 9.552 66.684 8.334 65.715 5.347 63.341 4.382 60.609 5.678 59.268 4.806 62.643 8.952 65.096 12.968 67.471ZM51.032 67.471C47.585 69.51 44.234 71.492 44.234 73.953 44.234 73.987 44.234 74.022 44.234 74.056 45.382 71.799 47.808 70.034 52.412 67.689 54.359 66.697 54.381 66.684 55.599 65.715 58.584 63.342 59.458 60.782 58.359 59.421 59.068 62.718 54.987 65.132 51.032 67.471Z" clip-rule="evenodd" opacity="0.2"/><path fill="#000" fill-opacity="0.2" fill-rule="evenodd" d="M4.41317 66.5661C4.37904 69.3409 4.48569 81.3165 18.7187 81.3165C18.7769 81.3165 18.8348 81.3165 18.8922 81.3159C18.7551 80.579 18.9367 79.9652 19.435 79.4388C19.9398 78.9051 19.6227 76.3812 18.8593 74.8546C18.6572 74.4503 18.5708 74.265 18.4789 74.2622C18.3993 74.2599 18.3155 74.3954 18.1486 74.6452C14.0166 80.8293 5.58627 76.0967 5.75714 67.6894C5.78324 66.4065 5.78324 66.4065 5.42559 66.1226C5.16502 65.9165 5.08613 65.8448 5.02788 65.8582C4.99281 65.8666 4.96522 65.9058 4.90997 65.9652C4.73613 66.1528 4.57047 66.3533 4.41317 66.5661Z" clip-rule="evenodd" style="mix-blend-mode:multiply"/><path fill="#22110c" fill-rule="evenodd" d="M59.612 66.804C59.633 69.883 59.245 81.373 45.304 81.373 45.212 81.373 45.12 81.372 45.03 81.371 45.187 80.61 45.009 79.979 44.498 79.439 43.993 78.905 44.31 76.381 45.074 74.855 45.276 74.45 45.362 74.265 45.454 74.262 45.534 74.26 45.617 74.395 45.784 74.645 49.916 80.829 58.347 76.097 58.176 67.689 58.157 66.777 58.152 66.513 58.275 66.337 58.324 66.265 58.395 66.208 58.495 66.127 58.682 65.975 58.783 65.88 58.879 65.883 59.021 65.89 59.152 66.11 59.531 66.682 59.559 66.723 59.585 66.764 59.612 66.804ZM29.502 36.596C29.417 37.233 29.553 37.995 29.933 38.825 30.217 39.447 30.217 39.447 30.652 39.451 31.044 39.455 31.133 39.478 31.527 39.678 31.966 39.899 31.966 39.899 32.405 39.678 32.8 39.478 32.889 39.455 33.28 39.451 33.716 39.447 33.716 39.447 34 38.825 34.379 37.994 34.502 37.228 34.408 36.587 34.219 37.624 33.786 38.979 32.814 39.092 32.394 39.18 32.101 39.185 32 39.177L31.993 39.176H31.915 31.908C31.807 39.185 31.514 39.18 31.094 39.092 30.124 38.98 29.691 37.631 29.502 36.596ZM35.18 39.709C35.666 38.961 35.869 38.245 35.915 37.119L35.939 36.527C36.126 37.542 36.076 38.962 35.224 40.168 35.003 39.982 35.014 39.966 35.18 39.709ZM38.641 38.755C38.602 39.273 38.439 39.846 38.14 40.444 38.108 40.508 38.079 40.566 38.053 40.619 37.893 40.944 37.83 41.071 37.734 41.105 37.672 41.127 37.595 41.11 37.47 41.082 37.438 41.075 37.403 41.067 37.364 41.059 37.062 40.997 36.895 40.99 36.688 41.033 36.633 41.044 36.584 41.054 36.539 41.064 36.529 41.066 36.519 41.067 36.51 41.069 36.547 40.958 36.836 40.868 37.13 40.776 37.407 40.689 37.689 40.601 37.77 40.492 38.174 39.955 38.482 39.412 38.641 38.755ZM39.839 38.554C39.834 39.325 39.387 40.59 38.885 41.251 38.67 41.534 38.655 41.553 38.928 41.844 39.507 41.017 40.109 39.388 39.882 38.501 39.854 38.514 39.839 38.531 39.839 38.554ZM43.413 41.174C43.338 41.648 43.074 42.645 42.669 43.068 42.188 43.572 41.99 43.628 41.593 43.46 41.357 43.361 41.013 43.409 40.763 43.475 41.217 43.492 41.628 43.613 42.006 43.838L42.018 43.845 42.039 43.858C42.177 43.941 42.253 43.986 42.323 43.978 42.409 43.968 42.485 43.874 42.656 43.663L42.673 43.642 42.689 43.622C43.263 42.915 43.491 42.014 43.413 41.174ZM47.522 44.205C47.422 44.987 47.137 46.377 46.039 47.296 45.006 48.162 44.227 48.22 44.057 46.988 44.04 46.869 44.017 46.806 43.99 46.788 44.041 47.223 44.02 47.661 43.917 48.06 43.854 48.3 43.803 48.504 43.803 48.513 43.803 48.651 45.344 48.012 45.883 47.65 47.123 46.818 47.666 45.445 47.522 44.205ZM44.594 42.112C44.46 42.98 44.144 43.597 43.489 44.276 43.067 44.712 43.067 44.712 43.245 44.93 43.264 44.953 43.282 44.977 43.301 45.001 43.865 44.434 44.494 43.351 44.594 42.112ZM38.926 44.738C38.822 45.331 38.649 45.979 38.393 46.288 37.883 46.904 37.204 47.072 36.666 46.988 36.395 46.946 35.947 47.064 35.555 47.201 36.35 47.168 36.954 47.323 37.479 47.681 37.607 47.768 37.711 47.806 37.733 47.774 37.754 47.743 37.878 47.581 38.008 47.413 38.584 46.67 38.897 45.658 38.926 44.738ZM34.355 46.927C35.17 46.502 36.477 45.365 36.461 43.555 36.303 44.861 35.525 46.018 34.303 46.717 34.288 46.725 34.314 46.817 34.355 46.927ZM35.388 43.677C35.136 44.41 34.576 45.565 33.692 45.252 32.899 44.972 32.418 44.916 32.021 44.916 31.996 44.916 31.974 44.919 31.954 44.923 31.934 44.919 31.912 44.916 31.887 44.916 31.49 44.916 31.009 44.972 30.216 45.252 29.418 45.534 28.884 44.622 28.603 43.902 28.734 44.443 29.003 45.032 29.413 45.644 29.67 46.027 29.765 46.169 29.84 46.159 29.883 46.153 29.92 46.096 29.979 46.004 30.823 44.689 33.11 44.689 33.954 46.004 34.183 46.362 35.107 44.998 35.342 43.955 35.363 43.862 35.378 43.769 35.388 43.677ZM24.983 44.745C24.993 45.626 25.296 46.602 25.924 47.413 26.054 47.581 26.178 47.743 26.199 47.774 26.222 47.806 26.326 47.768 26.454 47.681 26.972 47.327 27.569 47.171 28.35 47.2 27.959 47.063 27.512 46.946 27.242 46.988 26.704 47.072 26.025 46.904 25.515 46.288 25.26 45.98 25.088 45.336 24.983 44.745ZM27.453 43.368C27.341 45.302 28.733 46.507 29.574 46.938 29.617 46.823 29.645 46.725 29.63 46.717 28.349 45.985 27.557 44.75 27.453 43.368ZM24.99 41.859C25.278 41.553 25.266 41.538 25.048 41.251 24.545 40.59 24.098 39.325 24.094 38.554 24.094 38.542 24.067 38.533 24.02 38.526 23.809 39.424 24.414 41.044 24.99 41.859ZM20.499 41.194C20.412 42.008 20.642 42.88 21.243 43.622 21.255 43.636 21.266 43.65 21.277 43.663 21.447 43.874 21.524 43.968 21.61 43.978 21.68 43.986 21.756 43.941 21.893 43.858 21.904 43.852 21.915 43.845 21.927 43.838 22.298 43.616 22.702 43.496 23.149 43.476 22.898 43.41 22.552 43.36 22.315 43.46 21.918 43.628 21.72 43.572 21.239 43.068 20.84 42.651 20.577 41.675 20.499 41.194ZM25.329 38.98C25.389 39.445 25.542 39.941 25.792 40.444 25.824 40.508 25.853 40.566 25.879 40.619 26.039 40.943 26.102 41.071 26.199 41.105 26.261 41.127 26.337 41.11 26.463 41.082 26.495 41.075 26.53 41.067 26.568 41.059 26.871 40.997 27.038 40.99 27.245 41.033 27.299 41.044 27.349 41.054 27.394 41.064 27.395 41.064 27.395 41.064 27.396 41.064 27.351 40.955 27.067 40.866 26.778 40.776 26.501 40.689 26.219 40.601 26.138 40.492 25.781 40.017 25.499 39.539 25.329 38.98ZM27.95 36.638C27.989 36.763 28.01 36.924 28.018 37.126 28.064 38.245 28.268 38.962 28.752 39.709 28.923 39.972 28.93 39.983 28.693 40.181 27.863 39.016 27.787 37.647 27.95 36.638ZM19.943 46.783C19.905 46.774 19.872 46.834 19.851 46.988 19.681 48.22 18.902 48.162 17.869 47.296 16.856 46.448 16.535 45.198 16.413 44.396 16.352 45.578 16.872 46.86 18.049 47.65 18.589 48.012 20.129 48.651 20.129 48.513 20.129 48.504 20.078 48.3 20.016 48.06 19.912 47.66 19.891 47.219 19.943 46.783ZM20.621 45.015C20.643 44.986 20.665 44.958 20.687 44.931 20.864 44.713 20.864 44.713 20.42 44.25 19.762 43.562 19.406 42.823 19.307 41.941 19.305 41.922 19.303 41.904 19.301 41.887 19.338 43.229 20.019 44.418 20.621 45.015Z" clip-rule="evenodd" opacity="0.2"/><path fill="#f1f1f1" d="M52.899 71.489C52.899 70.808 53.47 70.257 54.173 70.257 54.877 70.257 55.448 70.808 55.448 71.489 55.448 72.169 54.877 72.721 54.173 72.721 53.47 72.721 52.899 72.169 52.899 71.489ZM8.439 71.489C8.439 70.808 9.009 70.257 9.713 70.257 10.417 70.257 10.988 70.808 10.988 71.489 10.988 72.169 10.417 72.721 9.713 72.721 9.009 72.721 8.439 72.169 8.439 71.489ZM11.837 72.609C11.837 72.423 11.672 72.273 11.469 72.273 11.266 72.273 11.101 72.423 11.101 72.609 11.101 72.794 11.266 72.945 11.469 72.945 11.672 72.945 11.837 72.794 11.837 72.609Z"/></g></svg>